<svg id="visual" viewBox="0 0 900 600" width="900" height="600" xmlns="http://www.w3.org/2000/svg" xmlns:xlink="http://www.w3.org/1999/xlink" version="1.1"><g stroke-width="1" stroke-linejoin="bevel"><path d="M421 317L483 408L483 266Z" fill="#cbcbcb" stroke="#cbcbcb"></path><path d="M421 317L437 428L483 408Z" fill="#d6d6d6" stroke="#d6d6d6"></path><path d="M604 362L585 275L483 266Z" fill="#ffffff" stroke="#ffffff"></path><path d="M506 461L604 362L483 408Z" fill="#cbcbcb" stroke="#cbcbcb"></path><path d="M483 408L604 362L483 266Z" fill="#d1d1d1" stroke="#d1d1d1"></path><path d="M437 428L506 461L483 408Z" fill="#c5c5c5" stroke="#c5c5c5"></path><path d="M585 275L493 174L483 266Z" fill="#d1d1d1" stroke="#d1d1d1"></path><path d="M483 266L438 178L421 317Z" fill="#e2e2e2" stroke="#e2e2e2"></path><path d="M493 174L438 178L483 266Z" fill="#cbcbcb" stroke="#cbcbcb"></path><path d="M294 365L367 471L437 428Z" fill="#c5c5c5" stroke="#c5c5c5"></path><path d="M437 428L367 471L506 461Z" fill="#d6d6d6" stroke="#d6d6d6"></path><path d="M294 365L437 428L421 317Z" fill="#cbcbcb" stroke="#cbcbcb"></path><path d="M728 299L636 224L585 275Z" fill="#e8e8e8" stroke="#e8e8e8"></path><path d="M585 275L636 224L493 174Z" fill="#cbcbcb" stroke="#cbcbcb"></path><path d="M285 289L294 365L421 317Z" fill="#f9f9f9" stroke="#f9f9f9"></path><path d="M316 167L285 289L421 317Z" fill="#e2e2e2" stroke="#e2e2e2"></path><path d="M710 475L711 366L604 362Z" fill="#ffffff" stroke="#ffffff"></path><path d="M604 362L728 299L585 275Z" fill="#f9f9f9" stroke="#f9f9f9"></path><path d="M591 600L636 522L506 461Z" fill="#dcdcdc" stroke="#dcdcdc"></path><path d="M506 461L636 522L604 362Z" fill="#ffffff" stroke="#ffffff"></path><path d="M711 366L728 299L604 362Z" fill="#eeeeee" stroke="#eeeeee"></path><path d="M430 68L316 167L438 178Z" fill="#e2e2e2" stroke="#e2e2e2"></path><path d="M438 178L316 167L421 317Z" fill="#eeeeee" stroke="#eeeeee"></path><path d="M294 365L295 494L367 471Z" fill="#ffffff" stroke="#ffffff"></path><path d="M429 600L461 600L506 461Z" fill="#f3f3f3" stroke="#f3f3f3"></path><path d="M217 471L295 494L294 365Z" fill="#ffffff" stroke="#ffffff"></path><path d="M636 522L710 475L604 362Z" fill="#f3f3f3" stroke="#f3f3f3"></path><path d="M711 366L768 297L728 299Z" fill="#d6d6d6" stroke="#d6d6d6"></path><path d="M429 600L506 461L367 471Z" fill="#c5c5c5" stroke="#c5c5c5"></path><path d="M316 600L429 600L367 471Z" fill="#f3f3f3" stroke="#f3f3f3"></path><path d="M584 70L535 71L493 174Z" fill="#dcdcdc" stroke="#dcdcdc"></path><path d="M493 174L430 68L438 178Z" fill="#c5c5c5" stroke="#c5c5c5"></path><path d="M584 70L493 174L636 224Z" fill="#d6d6d6" stroke="#d6d6d6"></path><path d="M535 71L430 68L493 174Z" fill="#c5c5c5" stroke="#c5c5c5"></path><path d="M165 212L213 318L285 289Z" fill="#e2e2e2" stroke="#e2e2e2"></path><path d="M285 289L213 318L294 365Z" fill="#d1d1d1" stroke="#d1d1d1"></path><path d="M774 438L768 297L711 366Z" fill="#f9f9f9" stroke="#f9f9f9"></path><path d="M728 299L725 175L636 224Z" fill="#eeeeee" stroke="#eeeeee"></path><path d="M461 600L591 600L506 461Z" fill="#f3f3f3" stroke="#f3f3f3"></path><path d="M636 522L670 600L710 475Z" fill="#dcdcdc" stroke="#dcdcdc"></path><path d="M725 175L584 70L636 224Z" fill="#c5c5c5" stroke="#c5c5c5"></path><path d="M535 71L493 0L430 68Z" fill="#f3f3f3" stroke="#f3f3f3"></path><path d="M768 297L725 175L728 299Z" fill="#c5c5c5" stroke="#c5c5c5"></path><path d="M213 318L201 375L294 365Z" fill="#c5c5c5" stroke="#c5c5c5"></path><path d="M770 536L774 438L710 475Z" fill="#e2e2e2" stroke="#e2e2e2"></path><path d="M710 475L774 438L711 366Z" fill="#dcdcdc" stroke="#dcdcdc"></path><path d="M201 375L217 471L294 365Z" fill="#e8e8e8" stroke="#e8e8e8"></path><path d="M295 494L316 600L367 471Z" fill="#ffffff" stroke="#ffffff"></path><path d="M190 600L316 600L295 494Z" fill="#e8e8e8" stroke="#e8e8e8"></path><path d="M591 600L670 600L636 522Z" fill="#e2e2e2" stroke="#e2e2e2"></path><path d="M775 173L736 127L725 175Z" fill="#dcdcdc" stroke="#dcdcdc"></path><path d="M725 175L736 127L584 70Z" fill="#ffffff" stroke="#ffffff"></path><path d="M768 297L775 173L725 175Z" fill="#eeeeee" stroke="#eeeeee"></path><path d="M809 123L775 173L900 221Z" fill="#f3f3f3" stroke="#f3f3f3"></path><path d="M610 0L535 71L584 70Z" fill="#cbcbcb" stroke="#cbcbcb"></path><path d="M610 0L493 0L535 71Z" fill="#ffffff" stroke="#ffffff"></path><path d="M430 68L294 62L316 167Z" fill="#e2e2e2" stroke="#e2e2e2"></path><path d="M424 0L294 62L430 68Z" fill="#dcdcdc" stroke="#dcdcdc"></path><path d="M316 167L165 212L285 289Z" fill="#f9f9f9" stroke="#f9f9f9"></path><path d="M493 0L424 0L430 68Z" fill="#cbcbcb" stroke="#cbcbcb"></path><path d="M670 600L770 536L710 475Z" fill="#d1d1d1" stroke="#d1d1d1"></path><path d="M209 103L165 212L316 167Z" fill="#f9f9f9" stroke="#f9f9f9"></path><path d="M213 318L122 325L201 375Z" fill="#d1d1d1" stroke="#d1d1d1"></path><path d="M74 425L114 508L217 471Z" fill="#f3f3f3" stroke="#f3f3f3"></path><path d="M687 0L610 0L584 70Z" fill="#f9f9f9" stroke="#f9f9f9"></path><path d="M294 62L209 103L316 167Z" fill="#f9f9f9" stroke="#f9f9f9"></path><path d="M165 212L122 325L213 318Z" fill="#e2e2e2" stroke="#e2e2e2"></path><path d="M775 173L809 123L736 127Z" fill="#eeeeee" stroke="#eeeeee"></path><path d="M736 127L687 0L584 70Z" fill="#d6d6d6" stroke="#d6d6d6"></path><path d="M900 221L775 173L768 297Z" fill="#d6d6d6" stroke="#d6d6d6"></path><path d="M900 373L768 297L774 438Z" fill="#f9f9f9" stroke="#f9f9f9"></path><path d="M209 103L129 191L165 212Z" fill="#ffffff" stroke="#ffffff"></path><path d="M165 212L129 191L122 325Z" fill="#cbcbcb" stroke="#cbcbcb"></path><path d="M806 0L687 0L736 127Z" fill="#e2e2e2" stroke="#e2e2e2"></path><path d="M217 471L190 600L295 494Z" fill="#d1d1d1" stroke="#d1d1d1"></path><path d="M114 508L190 600L217 471Z" fill="#c5c5c5" stroke="#c5c5c5"></path><path d="M670 600L795 600L770 536Z" fill="#e2e2e2" stroke="#e2e2e2"></path><path d="M900 492L900 373L774 438Z" fill="#c5c5c5" stroke="#c5c5c5"></path><path d="M294 62L239 0L209 103Z" fill="#c5c5c5" stroke="#c5c5c5"></path><path d="M209 103L98 71L129 191Z" fill="#d1d1d1" stroke="#d1d1d1"></path><path d="M424 0L265 0L294 62Z" fill="#f3f3f3" stroke="#f3f3f3"></path><path d="M900 492L774 438L770 536Z" fill="#e8e8e8" stroke="#e8e8e8"></path><path d="M74 425L217 471L201 375Z" fill="#c5c5c5" stroke="#c5c5c5"></path><path d="M900 373L900 278L768 297Z" fill="#cbcbcb" stroke="#cbcbcb"></path><path d="M265 0L239 0L294 62Z" fill="#f9f9f9" stroke="#f9f9f9"></path><path d="M122 325L74 425L201 375Z" fill="#eeeeee" stroke="#eeeeee"></path><path d="M0 324L74 425L122 325Z" fill="#d1d1d1" stroke="#d1d1d1"></path><path d="M900 278L900 221L768 297Z" fill="#d6d6d6" stroke="#d6d6d6"></path><path d="M795 600L900 492L770 536Z" fill="#e8e8e8" stroke="#e8e8e8"></path><path d="M900 85L806 0L809 123Z" fill="#d1d1d1" stroke="#d1d1d1"></path><path d="M809 123L806 0L736 127Z" fill="#f3f3f3" stroke="#f3f3f3"></path><path d="M0 600L98 600L114 508Z" fill="#d6d6d6" stroke="#d6d6d6"></path><path d="M114 508L98 600L190 600Z" fill="#dcdcdc" stroke="#dcdcdc"></path><path d="M112 0L98 71L209 103Z" fill="#eeeeee" stroke="#eeeeee"></path><path d="M0 228L0 324L122 325Z" fill="#d6d6d6" stroke="#d6d6d6"></path><path d="M900 221L900 85L809 123Z" fill="#dcdcdc" stroke="#dcdcdc"></path><path d="M795 600L900 600L900 492Z" fill="#cbcbcb" stroke="#cbcbcb"></path><path d="M0 228L122 325L129 191Z" fill="#f9f9f9" stroke="#f9f9f9"></path><path d="M74 425L0 478L114 508Z" fill="#f9f9f9" stroke="#f9f9f9"></path><path d="M0 324L0 436L74 425Z" fill="#ffffff" stroke="#ffffff"></path><path d="M0 69L0 228L129 191Z" fill="#d6d6d6" stroke="#d6d6d6"></path><path d="M239 0L112 0L209 103Z" fill="#e8e8e8" stroke="#e8e8e8"></path><path d="M98 71L0 69L129 191Z" fill="#cbcbcb" stroke="#cbcbcb"></path><path d="M0 436L0 478L74 425Z" fill="#eeeeee" stroke="#eeeeee"></path><path d="M900 85L900 0L806 0Z" fill="#dcdcdc" stroke="#dcdcdc"></path><path d="M0 478L0 600L114 508Z" fill="#f3f3f3" stroke="#f3f3f3"></path><path d="M0 0L0 69L98 71Z" fill="#e2e2e2" stroke="#e2e2e2"></path><path d="M112 0L0 0L98 71Z" fill="#dcdcdc" stroke="#dcdcdc"></path></g></svg>